<?xml version="1.0" encoding="UTF-8"?>
<svg id="Layer_2" data-name="Layer 2" xmlns="http://www.w3.org/2000/svg" xmlns:xlink="http://www.w3.org/1999/xlink" viewBox="0 0 301.76 388.16">
  <defs>
    <style>
      .cls-1 {
        isolation: isolate;
      }

      .cls-2 {
        fill: #bfd6d9;
      }

      .cls-2, .cls-3 {
        stroke-width: 0px;
      }

      .cls-3 {
        fill: none;
      }

      .cls-4 {
        clip-path: url(#clippath);
      }
    </style>
    <clipPath id="clippath">
      <rect class="cls-3" x=".03" width="301.72" height="301.72"/>
    </clipPath>
  </defs>
  <g id="Layer_10" data-name="Layer 10">
    <g id="Group_21" data-name="Group 21">
      <g id="Group_14" data-name="Group 14" class="cls-1">
        <g class="cls-4">
          <g id="Group_13" data-name="Group 13">
            <path id="Path_53" data-name="Path 53" class="cls-2" d="M151.32,21.91c-71.01,0-128.58,57.56-128.58,128.56,0,71.01,57.56,128.58,128.56,128.58,71,0,128.57-57.55,128.58-128.55-.08-70.98-57.59-128.5-128.56-128.59M151.32,271.52c-66.85,0-121.04-54.17-121.05-121.02,0-66.85,54.17-121.04,121.02-121.05,66.85,0,121.04,54.17,121.05,121.02v.04c-.08,66.81-54.22,120.94-121.02,121.02M151.32,21.92c-71.01,0-128.58,57.56-128.58,128.56,0,71.01,57.56,128.58,128.56,128.58,71.01,0,128.57-57.55,128.58-128.56-.08-70.98-57.59-128.5-128.56-128.59M151.32,271.52c-66.85,0-121.04-54.17-121.05-121.02,0-66.85,54.17-121.04,121.02-121.05,66.85,0,121.04,54.17,121.05,121.02v.04c-.08,66.81-54.22,120.94-121.02,121.02M151.32,21.92c-71.01,0-128.58,57.56-128.58,128.56,0,71.01,57.56,128.58,128.56,128.58,71.01,0,128.57-57.55,128.58-128.56-.08-70.98-57.59-128.5-128.56-128.59M151.32,271.52c-66.85,0-121.04-54.17-121.05-121.02,0-66.85,54.17-121.04,121.02-121.05,66.85,0,121.04,54.17,121.05,121.02v.04c-.08,66.81-54.22,120.94-121.02,121.02M151.32,21.92c-71.01,0-128.58,57.56-128.58,128.56,0,71.01,57.56,128.58,128.56,128.58,71.01,0,128.57-57.55,128.58-128.56-.08-70.98-57.59-128.5-128.56-128.59M151.32,271.52c-66.85,0-121.04-54.17-121.05-121.02,0-66.85,54.17-121.04,121.02-121.05,66.85,0,121.04,54.17,121.05,121.02v.04c-.08,66.81-54.22,120.94-121.02,121.02M151.32,21.92c-71.01,0-128.58,57.56-128.58,128.56,0,71.01,57.56,128.58,128.56,128.58,71.01,0,128.57-57.55,128.58-128.56-.08-70.98-57.59-128.5-128.56-128.59M151.32,271.52c-66.85,0-121.04-54.17-121.05-121.02,0-66.85,54.17-121.04,121.02-121.05,66.85,0,121.04,54.17,121.05,121.02v.04c-.08,66.81-54.22,120.94-121.02,121.02"/>
            <path id="Path_54" data-name="Path 54" class="cls-2" d="M150.9,0C67.58,0,.03,67.54.03,150.86s67.54,150.86,150.86,150.86,150.86-67.54,150.86-150.86C301.66,67.58,234.18.1,150.9,0M150.9,290.03c-76.86,0-139.17-62.31-139.17-139.17S74.03,11.69,150.9,11.69s139.17,62.31,139.17,139.17c-.09,76.82-62.35,139.08-139.17,139.17"/>
            <path id="Path_55" data-name="Path 55" class="cls-2" d="M177.71,262.66l-34.23-45.16c-3.45-4.53-7.03-9.25-10.48-13.93-1.66-2.25-3.33-4.5-5.01-6.74-3.02-4.03-6.11-8.2-9.11-12.35l-8.3-11.47c-.91,5.02-1.98,10.83-2.47,13.52-.63,3.43-1.3,6.86-1.98,10.3-.36,1.83-.75,3.66-1.08,5.5l-1.24,6.44-5.03,1.27c-1.35.35-2.72.64-4.1.94l-2.17.49c-1.36.32-2.73.59-4.11.87l-2.2.45-1.51.29c-1.65.32-3.31.63-4.99.89-2.26.39-4.45.7-6.55.95l-12.34,1.45,9.35-8.18c1.62-1.43,3.3-2.82,5.12-4.26,1.27-1.03,2.61-2.04,3.94-3.06l1.18-.9,1.83-1.36c1.14-.84,2.26-1.69,3.44-2.5l.22-.16c0-1.14.05-2.18.08-3.19.07-2.74.12-5.21.26-8.64.07-1.88.14-3.76.2-5.64.12-3.47.23-6.95.39-10.42l.72-16.02,2.71-49.91,23.2,26.32c3.4,3.86,6.79,7.82,10.09,11.65,1.82,2.11,3.63,4.22,5.45,6.34,3.32,3.86,6.59,7.75,9.87,11.65l4.12,4.89-.16-22.73.14-28.79,1.09-73.09,36.14,60.19,6.19,10.56c4.97,8.43,8.76,14.96,12.28,21.12l6.03,10.56,6.37,11.35,7.97-16.91,3.39-.75c4.04-.94,7.75-1.73,11.31-2.43,4.64-.89,8.25-1.51,11.7-1.91l12.6-1.56-9.59,8.3c-2.62,2.26-5.48,4.53-9.25,7.41l-1.64,1.24c-1.51,1.13-2.42,1.84-4.16,3.07l-4.44,16.01c-.65,2.26-1.28,4.45-1.92,6.65-1.15,4-2.26,8-3.48,11.98l-6.89,23.06-17.85-24.47c-3.77-5.11-7.6-10.4-11.31-15.66l-9.69-13.63.24,16.07.08,14.42c.05,8.73.11,18.86,0,28.81l-.38,50.84Z"/>
          </g>
        </g>
      </g>
      <g id="Group_20" data-name="Group 20">
        <path id="Path_37" data-name="Path 37" class="cls-2" d="M8.43,380.85c-5.69-4.88-8.79-12.13-8.4-19.61-.01-7.04,2.99-13.75,8.24-18.44,6.22-4.99,14.1-7.45,22.05-6.86,3.17.02,6.33.29,9.45.79,2.17.41,4.37.7,6.58.87.75.08.75.46.75.87,0,.54-.2,2.13-.33,4.41s-.08,6.12-.2,7.78c-.08,1-.2,1.58-.79,1.58s-.75-.46-.79-1.41c-.03-2.41-.93-4.73-2.53-6.53-3.77-3.1-8.6-4.6-13.46-4.18-3.55-.21-7.06.94-9.81,3.2-4.26,4.53-6.39,10.66-5.86,16.85,0,13.72,7.45,22.89,18.64,22.89,5.45,0,8.86-.46,11.44-3.4,1.08-1.29,1.84-2.82,2.2-4.46.33-1.38.54-1.87,1.08-1.87s.54.66.54,1.21c-.3,3.4-.79,6.77-1.46,10.12-.08.96-.79,1.75-1.74,1.92-3.7,1.14-7.57,1.65-11.44,1.51-8.67.55-17.24-2.05-24.14-7.32l-.02.09Z"/>
        <path id="Path_38" data-name="Path 38" class="cls-2" d="M72.62,370.51c-.41,3.66-.16,7.36.75,10.93.87,1.21,1.92,1.38,6.91,1.38,2.21.17,4.44-.06,6.58-.66,1.67-.66,2.92-2.07,3.66-5.28.13-.66.33-1.21.87-1.21.41,0,.54.41.54,1.21-.21,3.01-.7,5.99-1.46,8.91-.54,1.51-.92,1.51-3.12,1.51-8.98,0-14.52-.33-20.84-.33-2.79,0-5.79.2-9.2.2-.92,0-1.41-.2-1.41-.75,0-.26.33-.59,1.12-.59.59-.08.75-.08,1.41-.13,2.41-.41,2.66-1.34,2.87-6.66,0-2.26.08-5.45.08-8.65v-10.04c0-9.58-.08-10.24-.2-12.11-.13-1.58-.66-2.53-2.07-2.92-.73-.16-1.46-.27-2.2-.33-.66-.08-1.21-.2-1.21-.66s.46-.66,1.67-.66c3.58,0,6.53.2,9.05.2.33,0,8.06-.2,10.19-.2,1.08,0,1.34.26,1.34.59,0,.54-.54.75-1.08.75-.6.05-1.21.14-1.8.28-1.67.26-2.13,1.34-2.26,3.38-.13,1.87-.2,2.74-.2,12.45v9.45l.03-.04Z"/>
        <path id="Path_39" data-name="Path 39" class="cls-2" d="M111.9,376.25c-.41,0-.59.41-.66.59l-1.41,3.4c-.51,1.12-.85,2.31-1,3.53,0,1.95,2.53,2,4.07,2.13.87.08,1.08.33,1.08.59,0,.46-.33.75-1.12.75-2.92,0-4.92-.2-8.3-.2-.66,0-4.53.2-7.4.2-.92,0-1.21-.28-1.21-.66s.33-.66,1.08-.66c2.87-.33,4.41-1.12,6.12-5.05l15.98-34.08c1.41-3.07,2.07-3.95,2.79-3.95s1.21.87,2.33,3.12c1.46,3.25,11.77,24.89,15.77,33.7,2.07,4.25,3.12,5.79,5.4,6.12.44.07.89.11,1.34.13.75,0,1.12.33,1.12.66,0,.46-.54.66-1.21.66-6.74-.08-13.65-.13-17.18-.2-.79,0-1.21-.26-1.21-.59s.41-.54.79-.66c.54-.2,1.12-.26.79-1l-3.66-8.19c-.1-.2-.31-.33-.54-.33h-13.77ZM123.73,370.97c.41,0,.41-.13.33-.26l-5.28-11.9c-.2-.33-.2-.2-.33.08l-4.92,11.86c-.08.2.08.26.2.26h9.99v-.03Z"/>
        <path id="Path_40" data-name="Path 40" class="cls-2" d="M154.84,386.36c-.94-.36-1.5-1.34-1.34-2.33-.06-2.97.05-5.95.33-8.91.13-1.08.46-1.25.79-1.25s.54.26.59.87.08,1,.2,1.51c1.11,4.86,5.59,8.19,10.56,7.86,5.4,0,7.07-2.53,7.07-4.87s-.79-4.2-5.86-7.54l-3.66-2.46c-7.12-4.92-9.05-8.78-9.05-14.11.08-6.66,5.86-12.27,15.52-12.27,2.43-.05,4.86.18,7.25.66.92.2,2,.41,3.02.66.59.13.75.33.75.87-.08,2.13-.2,3.12-.2,8.45,0,1-.2,1.41-.66,1.41-.33,0-.66-.13-.79-1.12-.11-1.11-.42-2.2-.92-3.2-1.88-2.71-5.01-4.26-8.3-4.13-4.99,0-6.58,2.79-6.58,5.28s1.21,4.25,4.53,6.32l3.4,2.13c8.58,5.4,10.98,8.65,10.98,14.44.11,4.68-2.48,9-6.66,11.11-3.34,1.68-7.05,2.48-10.78,2.33-3.43.14-6.86-.43-10.06-1.67l-.13-.05Z"/>
        <path id="Path_41" data-name="Path 41" class="cls-2" d="M193.12,386.36c-.94-.37-1.49-1.34-1.33-2.33-.06-2.97.05-5.95.33-8.91.13-1.08.46-1.25.79-1.25s.54.26.59.87.08,1,.2,1.51c1.11,4.86,5.59,8.19,10.56,7.86,5.4,0,7.07-2.53,7.07-4.87s-.79-4.2-5.86-7.54l-3.66-2.46c-7.12-4.92-9.05-8.78-9.05-14.11.08-6.66,5.86-12.27,15.52-12.27,2.43-.05,4.86.18,7.25.66.92.2,2,.41,3.02.66.59.13.75.33.75.87-.08,2.13-.2,3.12-.2,8.45,0,1-.2,1.41-.66,1.41-.33,0-.66-.13-.79-1.12-.11-1.11-.42-2.2-.92-3.2-1.88-2.71-5.01-4.26-8.3-4.13-4.99,0-6.58,2.79-6.58,5.28s1.21,4.25,4.53,6.32l3.4,2.13c8.58,5.4,10.98,8.65,10.98,14.44.11,4.68-2.48,9-6.66,11.11-3.34,1.68-7.05,2.48-10.78,2.33-3.43.14-6.86-.43-10.06-1.67l-.14-.05Z"/>
        <path id="Path_42" data-name="Path 42" class="cls-2" d="M233.98,360.33c0-8.98,0-10.56-.2-12.32-.13-1.51-.54-2.61-2-2.79-.61-.15-1.24-.24-1.87-.28-.79-.08-1.12-.26-1.12-.66s.2-.66,1.34-.66c2.33,0,8.73.2,8.91.2.33,0,7.86-.2,10.12-.2,1.08,0,1.21.26,1.21.66s-.46.59-1.21.66c-.59.08-.66.08-1.33.2-1.58.33-2.13.95-2.41,2.92s-.2,3.25-.2,12.24v10.12c0,4.41.08,9.86.33,12.32-.1,1.42.92,2.68,2.33,2.87.81.15,1.63.24,2.46.26,1,0,1.25.41,1.25.75s-.26.59-1.25.59c-4.12,0-10.98-.2-11.31-.2-.13,0-7.07.2-8.91.2-1,0-1.41-.2-1.41-.66,0-.33.33-.66,1-.66.54-.08,1.12-.08,1.92-.2,1.25-.28,1.8-1.46,1.92-3.12.37-4.03.5-8.07.41-12.11v-10.14l.04.03Z"/>
        <path id="Path_43" data-name="Path 43" class="cls-2" d="M266.77,381.7c-5.1-4.12-7.91-10.44-7.54-16.98.04-6.2,2.8-12.07,7.54-16.05,5.7-4.3,12.77-6.38,19.89-5.86,2.85.01,5.7.24,8.52.66,1.9.42,3.84.67,5.79.75.66.08.66.46.66.79,0,.46-.13,2.13-.26,4.07s-.13,5.28-.26,6.91c-.08.87-.26,1.41-.79,1.41s-.66-.46-.75-1.25c.01-2.12-.77-4.17-2.2-5.73-3.34-2.72-7.62-4-11.9-3.58-2.97-.12-5.88.79-8.24,2.59-3.78,3.72-5.69,8.95-5.2,14.23,0,11.44,6.19,19.61,16.38,19.61,3.57.57,7.2-.48,9.91-2.87.97-1.22,1.63-2.67,1.92-4.2.26-1.21.46-1.38.92-1.38s.59.38.59,1c0,1.12-.79,6.19-1.25,8.98-.11.9-.73,1.65-1.58,1.95-3.31.96-6.75,1.38-10.19,1.25-7.8.49-15.53-1.75-21.87-6.32l-.08.02Z"/>
      </g>
    </g>
  </g>
</svg>