<?xml version="1.0" encoding="UTF-8"?>
<svg id="Layer_2" data-name="Layer 2" xmlns="http://www.w3.org/2000/svg" viewBox="0 0 244.94 146.28">
  <defs>
    <style>
      .cls-1 {
        fill: #000;
        stroke-width: 0px;
      }
    </style>
  </defs>
  <g id="Layer_10" data-name="Layer 10">
    <g>
      <g>
        <path class="cls-1" d="M121.85,5.1c-16.5,0-29.92,13.42-29.92,29.92s13.42,29.91,29.92,29.91,29.91-13.42,29.91-29.91-13.42-29.92-29.91-29.92ZM121.85,63.18c-15.53,0-28.17-12.63-28.17-28.16s12.64-28.16,28.17-28.16,28.16,12.64,28.16,28.16-12.63,28.16-28.16,28.16ZM121.85,5.1c-16.5,0-29.92,13.42-29.92,29.92s13.42,29.91,29.92,29.91,29.91-13.42,29.91-29.91-13.42-29.92-29.91-29.92ZM121.85,63.18c-15.53,0-28.17-12.63-28.17-28.16s12.64-28.16,28.17-28.16,28.16,12.64,28.16,28.16-12.63,28.16-28.16,28.16ZM121.85,5.1c-16.5,0-29.92,13.42-29.92,29.92s13.42,29.91,29.92,29.91,29.91-13.42,29.91-29.91-13.42-29.92-29.91-29.92ZM121.85,63.18c-15.53,0-28.17-12.63-28.17-28.16s12.64-28.16,28.17-28.16,28.16,12.64,28.16,28.16-12.63,28.16-28.16,28.16ZM121.85,5.1c-16.5,0-29.92,13.42-29.92,29.92s13.42,29.91,29.92,29.91,29.91-13.42,29.91-29.91-13.42-29.92-29.91-29.92ZM121.85,63.18c-15.53,0-28.17-12.63-28.17-28.16s12.64-28.16,28.17-28.16,28.16,12.64,28.16,28.16-12.63,28.16-28.16,28.16ZM121.85,5.1c-16.5,0-29.92,13.42-29.92,29.92s13.42,29.91,29.92,29.91,29.91-13.42,29.91-29.91-13.42-29.92-29.91-29.92ZM121.85,63.18c-15.53,0-28.17-12.63-28.17-28.16s12.64-28.16,28.17-28.16,28.16,12.64,28.16,28.16-12.63,28.16-28.16,28.16Z"/>
        <path class="cls-1" d="M121.75,0c-19.35,0-35.1,15.75-35.1,35.1s15.75,35.1,35.1,35.1,35.1-15.75,35.1-35.1S141.11,0,121.75,0ZM121.75,67.48c-17.85,0-32.38-14.53-32.38-32.38S103.9,2.72,121.75,2.72s32.38,14.53,32.38,32.38-14.53,32.38-32.38,32.38Z"/>
      </g>
      <path class="cls-1" d="M127.99,61.11l-7.96-10.51c-.8-1.06-1.63-2.15-2.44-3.24-.39-.52-.78-1.05-1.17-1.57-.7-.94-1.42-1.91-2.12-2.87-.53-.72-1.29-1.78-1.94-2.67-.21,1.17-.46,2.52-.57,3.15-.14.8-.3,1.6-.46,2.4-.08.43-.17.85-.25,1.28l-.29,1.5-1.17.3c-.31.08-.63.15-.95.22-.17.04-.34.07-.51.11-.32.07-.64.14-.96.2-.17.03-.34.07-.51.1l-.35.07c-.39.07-.77.15-1.16.21-.53.09-1.03.16-1.53.22l-2.87.34,2.17-1.91c.38-.33.77-.66,1.19-.99.3-.24.61-.48.92-.71l.27-.21c.15-.11.29-.21.43-.32.27-.2.53-.39.8-.58.02-.01.04-.02.05-.04,0-.27.01-.51.02-.74.01-.64.03-1.21.06-2.01.02-.44.03-.87.05-1.31.03-.81.05-1.62.09-2.42l.17-3.73.63-11.61,5.4,6.12c.79.9,1.58,1.82,2.35,2.71.42.49.84.98,1.27,1.48.77.9,1.53,1.8,2.3,2.71.32.38.64.76.96,1.14l-.04-5.29.03-6.7.25-17.01,8.41,14.01,1.44,2.45c1.16,1.96,2.04,3.48,2.86,4.92l1.41,2.46,1.48,2.64,1.85-3.94.79-.18c.94-.22,1.8-.4,2.64-.56,1.08-.21,1.92-.34,2.72-.44l2.93-.36-2.23,1.93c-.61.53-1.27,1.06-2.15,1.73l-.38.29c-.35.26-.56.43-.97.71l-1.03,3.72c-.15.52-.3,1.04-.45,1.55-.27.93-.53,1.86-.81,2.79l-1.6,5.37-4.15-5.69c-.87-1.19-1.77-2.42-2.64-3.64l-2.26-3.17.06,3.74.02,3.35c.01,2.03.03,4.39,0,6.7l-.11,11.82Z"/>
    </g>
    <g>
      <path class="cls-1" d="M66.75,143.42c-2.55-2.18-3.28-4.86-3.28-7.64,0-1.77.6-4.99,3.22-7.2,2.24-1.9,4.84-2.68,8.61-2.68,1.48,0,2.68.16,3.69.31,1.17.18,1.79.31,2.57.34.29.03.29.18.29.34,0,.21-.08.83-.13,1.72-.05.86-.03,2.39-.08,3.04-.03.39-.08.62-.31.62-.21,0-.29-.18-.31-.55-.03-.57-.13-1.61-.99-2.55-.91-.96-2.73-1.64-5.25-1.64-1.53,0-2.81.36-3.82,1.25-1.59,1.38-2.29,3.8-2.29,6.58,0,5.36,2.91,8.94,7.28,8.94,2.13,0,3.46-.18,4.47-1.33.36-.39.65-.96.86-1.74.13-.55.21-.73.42-.73.18,0,.21.26.21.47,0,.44-.31,2.7-.57,3.95-.05.39-.23.6-.68.75-1.04.42-2.81.6-4.47.6-3.38,0-6.71-.57-9.44-2.86Z"/>
      <path class="cls-1" d="M91.82,139.39c0,2.13-.08,3.77.29,4.26.34.47.75.55,2.7.55,1.3,0,1.92-.03,2.57-.26.65-.26,1.14-.81,1.43-2.05.05-.26.13-.47.34-.47.16,0,.21.16.21.47,0,.57-.34,2.83-.57,3.48-.21.6-.36.6-1.22.6-3.51,0-5.67-.13-8.14-.13-1.09,0-2.26.08-3.59.08-.36,0-.55-.08-.55-.29,0-.1.13-.23.44-.23.23-.03.29-.03.55-.05.94-.16,1.04-.52,1.12-2.6,0-.88.03-2.13.03-3.38v-3.95c0-3.74-.03-4-.08-4.73-.05-.62-.26-.99-.81-1.14-.21-.05-.52-.1-.86-.13-.26-.03-.47-.08-.47-.26s.18-.26.65-.26c1.4,0,2.55.08,3.54.08.13,0,3.15-.08,3.98-.08.42,0,.52.1.52.23,0,.21-.21.29-.42.29-.26.03-.36.03-.7.1-.65.1-.83.52-.88,1.33-.05.73-.08,1.07-.08,4.86v3.69Z"/>
      <path class="cls-1" d="M107.16,141.62c-.16,0-.23.16-.26.23l-.55,1.33c-.23.57-.39,1.09-.39,1.38,0,.75.99.78,1.59.83.34.03.42.13.42.23,0,.18-.13.29-.44.29-1.14,0-1.92-.08-3.25-.08-.26,0-1.77.08-2.89.08-.36,0-.47-.1-.47-.26s.13-.26.42-.26c1.12-.13,1.72-.44,2.39-1.98l6.24-13.31c.55-1.2.81-1.53,1.09-1.53.26,0,.47.34.91,1.22.57,1.27,4.6,9.72,6.16,13.16.81,1.66,1.22,2.26,2.11,2.39.21.03.39.05.52.05.29,0,.44.13.44.26,0,.18-.21.26-.47.26-2.63-.03-5.33-.05-6.71-.08-.31,0-.47-.1-.47-.23,0-.16.16-.21.31-.26.21-.08.44-.1.31-.39l-1.43-3.2c-.03-.08-.13-.13-.21-.13h-5.38ZM111.78,139.57c.16,0,.16-.05.13-.1l-2.05-4.65c-.08-.13-.08-.08-.13.03l-1.92,4.63c-.03.08.03.1.08.1h3.9Z"/>
      <path class="cls-1" d="M123.93,145.57c-.42-.16-.52-.49-.52-.91,0-1.95.05-2.78.13-3.48.05-.42.18-.49.31-.49s.21.1.23.34c.03.21.03.39.08.6.31,1.95,2.21,3.07,4.11,3.07,2.11,0,2.76-.99,2.76-1.9s-.31-1.64-2.29-2.96l-1.43-.96c-2.78-1.92-3.54-3.43-3.54-5.51.03-2.6,2.29-4.78,6.06-4.78,1.07,0,1.77.05,2.83.26.36.08.78.16,1.17.26.23.05.29.13.29.34-.03.83-.08,1.22-.08,3.3,0,.39-.08.55-.26.55-.13,0-.26-.05-.31-.44-.03-.26-.1-.75-.36-1.25-.47-.83-1.69-1.61-3.25-1.61-1.95,0-2.57,1.09-2.57,2.05s.47,1.66,1.77,2.47l1.33.83c3.35,2.11,4.29,3.38,4.29,5.64,0,1.79-.81,3.35-2.6,4.34-1.38.78-2.99.91-4.21.91-1.82,0-3.02-.26-3.93-.65Z"/>
      <path class="cls-1" d="M138.88,145.57c-.42-.16-.52-.49-.52-.91,0-1.95.05-2.78.13-3.48.05-.42.18-.49.31-.49s.21.1.23.34c.03.21.03.39.08.6.31,1.95,2.21,3.07,4.11,3.07,2.11,0,2.76-.99,2.76-1.9s-.31-1.64-2.29-2.96l-1.43-.96c-2.78-1.92-3.54-3.43-3.54-5.51.03-2.6,2.29-4.78,6.06-4.78,1.07,0,1.77.05,2.83.26.36.08.78.16,1.17.26.23.05.29.13.29.34-.03.83-.08,1.22-.08,3.3,0,.39-.08.55-.26.55-.13,0-.26-.05-.31-.44-.03-.26-.1-.75-.36-1.25-.47-.83-1.69-1.61-3.25-1.61-1.95,0-2.57,1.09-2.57,2.05s.47,1.66,1.77,2.47l1.33.83c3.35,2.11,4.29,3.38,4.29,5.64,0,1.79-.81,3.35-2.6,4.34-1.38.78-2.99.91-4.21.91-1.82,0-3.02-.26-3.93-.65Z"/>
      <path class="cls-1" d="M154.84,135.41c0-3.51,0-4.11-.08-4.81-.05-.6-.21-1.01-.78-1.09-.16-.05-.42-.08-.73-.1-.31-.03-.44-.1-.44-.26,0-.13.08-.26.52-.26.91,0,3.41.08,3.48.08.13,0,3.07-.08,3.95-.08.42,0,.47.1.47.26,0,.18-.18.23-.47.26-.23.03-.26.03-.52.08-.62.13-.83.36-.94,1.14-.08.73-.08,1.27-.08,4.78v3.95c0,1.72.03,3.85.13,4.81.05.57.21.96.91,1.12.31.08.7.08.96.1.39,0,.49.16.49.29,0,.1-.1.23-.49.23-1.61,0-4.29-.08-4.42-.08-.05,0-2.76.08-3.48.08-.39,0-.55-.08-.55-.26,0-.13.13-.26.39-.26.21-.03.44-.03.75-.08.49-.1.7-.57.75-1.22.13-.94.16-2.5.16-4.73v-3.95Z"/>
      <path class="cls-1" d="M167.66,143.75c-2.31-1.9-2.96-4.19-2.96-6.63,0-1.53.57-4.37,2.94-6.27,2.05-1.66,4.45-2.29,7.77-2.29,1.3,0,2.44.13,3.33.26,1.09.18,1.56.29,2.26.29.26.03.26.18.26.31,0,.18-.05.83-.1,1.59-.03.75-.05,2.05-.1,2.7-.03.34-.1.55-.31.55-.18,0-.26-.18-.29-.49-.03-.44-.05-1.38-.86-2.24-.81-.86-2.39-1.4-4.65-1.4-1.22,0-2.39.31-3.22,1.01-1.38,1.09-2.03,3.12-2.03,5.56,0,4.47,2.42,7.67,6.4,7.67,1.85,0,2.96-.16,3.87-1.12.29-.31.6-.94.75-1.64.1-.47.18-.55.36-.55.16,0,.23.16.23.39,0,.44-.31,2.42-.49,3.51-.08.39-.26.62-.62.75-.91.36-2.52.49-3.98.49-3.02,0-6.03-.47-8.55-2.47Z"/>
    </g>
    <rect class="cls-1" y="136.03" width="47.84" height="1.16"/>
    <rect class="cls-1" x="197.1" y="136.03" width="47.84" height="1.16"/>
    <g>
      <path class="cls-1" d="M7.13,93.7l-.18.04.18,1.91v14.61H0v-25.2h10.65l4.07,14.25.22,1.73h.18l.25-1.73,4.03-14.25h10.66v25.2h-7.13v-14.61l.18-1.91-.18-.04-5.04,16.56h-5.72l-5.04-16.56Z"/>
      <path class="cls-1" d="M41.87,110.25h-8.13l9.32-25.2h7.74l9.32,25.2h-8.13l-1.15-3.56h-7.81l-1.15,3.56ZM49.28,101.51l-2.38-7.56-2.34,7.56h4.71Z"/>
      <path class="cls-1" d="M88.02,96.36v13.89h-5.76l-.47-2.12c-1.4,1.73-3.35,2.88-7.42,2.88-2.56,0-5.83-.32-8.46-2.77-2.2-2.05-3.64-5.51-3.64-9.93,0-5.33,2.12-8.57,3.82-10.29,2.88-2.92,6.3-3.56,9.32-3.56s6.41.61,8.64,2.38c1.66,1.29,3.31,3.74,3.71,6.95h-8.1c-.11-.86-.47-1.62-.94-2.09-.94-.97-2.27-1.08-2.95-1.08-1.66,0-2.7.65-3.35,1.33-1.22,1.3-1.66,3.71-1.66,5.72s.43,4.61,1.94,6.01c1.01.97,2.16,1.15,3.35,1.15,1.01,0,1.94-.18,2.88-.9.94-.76,1.4-1.76,1.51-2.02h-3.46v-5.54h11.01Z"/>
      <path class="cls-1" d="M101.45,96.29l.18,1.91v12.06h-7.85v-25.2h7.85l7.7,13.97h.18l-.18-1.91v-12.06h7.85v25.2h-7.85l-7.7-13.97h-.18Z"/>
      <path class="cls-1" d="M132.23,85.06v25.2h-7.85v-25.2h7.85Z"/>
      <path class="cls-1" d="M136.73,91.97v-6.91h22.1v6.91h-7.13v18.29h-7.85v-18.29h-7.13Z"/>
      <path class="cls-1" d="M186.66,100.82c0,2.41-.18,4.86-2.45,7.16-2.27,2.3-5.51,2.95-9.18,2.95s-6.98-.65-9.25-2.95c-2.16-2.2-2.45-4.64-2.45-7.2v-15.73h7.88v15.41c0,1.01.14,2.3.97,3.17.86.9,2.05.97,2.81.97s1.94-.07,2.81-.97c.83-.86.97-2.16.97-3.17v-15.41h7.88v15.77Z"/>
      <path class="cls-1" d="M205.95,85.06c2.95,0,6.12.32,8.75,2.81,2.41,2.27,3.63,6.12,3.63,10.15,0,5.69-2.48,8.53-3.67,9.61-2.77,2.52-5.76,2.63-8.71,2.63h-12.09v-25.2h12.09ZM201.7,103.49h2.81c1.15,0,2.77-.07,3.96-1.19,1.3-1.19,1.51-3.2,1.51-4.64,0-.94-.04-3.38-1.37-4.71-1.19-1.19-2.95-1.26-4.14-1.26h-2.77v11.81Z"/>
      <path class="cls-1" d="M242.78,94.56v5.94h-11.2v3.1h13.35v6.66h-21.2v-25.2h20.91v6.66h-13.07v2.84h11.2Z"/>
    </g>
  </g>
</svg>